<svg xmlns="http://www.w3.org/2000/svg" viewBox="0 0 320 220" role="img" aria-labelledby="title desc">
  <title>Red-shanked douc langur range map placeholder</title>
  <desc>Stylized map showing a highlighted range over Vietnam.</desc>
  <defs>
    <linearGradient id="bg" x1="0%" y1="0%" x2="100%" y2="100%">
      <stop offset="0%" stop-color="#f5f5f5"/>
      <stop offset="100%" stop-color="#e6e6e6"/>
    </linearGradient>
  </defs>
  <rect width="320" height="220" fill="url(#bg)" stroke="#d4d4d4" stroke-width="1.5" rx="6"/>
  <path d="M60 120c10-40 60-70 100-60s70 40 80 80c6 26-10 46-30 52-34 10-72-8-98-22-20-12-66-22-52-50z" fill="#dce9df" stroke="#a1b8a6" stroke-width="2"/>
  <path d="M182 130c12 10 18 30 6 44-10 10-30 12-44 8-16-6-18-26-6-40 12-14 30-22 44-12z" fill="#c4d7c7" stroke="#7a9b80" stroke-width="2"/>
  <circle cx="210" cy="140" r="8" fill="#dc5c1c" stroke="#ffffff" stroke-width="3"/>
  <text x="210" y="138" text-anchor="middle" font-family="Arial, sans-serif" font-size="10" fill="#ffffff" font-weight="bold">VN</text>
</svg>
